<svg width="1080" height="313" viewBox="0 0 1080 313" fill="none" xmlns="http://www.w3.org/2000/svg">
<path d="M61.5314 110.762C67.6863 108.595 71.5133 103.433 73.7746 97.7079C76.038 91.9774 76.8717 85.369 76.8717 79.6336C76.8717 70.5551 82.2513 61.5308 92.841 52.9748C103.409 44.4362 118.854 36.636 138.161 30.038C176.75 16.8505 230.222 8.64931 289.402 8.64931C319.902 8.64931 348.9 10.8278 375.133 14.7497C379.36 15.3816 383.659 15.2198 387.823 14.2935C421.326 6.84078 461.378 2.5 504.431 2.5C551.719 2.5 595.382 7.73683 630.722 16.5794C634.549 17.5369 638.511 17.852 642.451 17.4768C660.776 15.7319 680.096 14.7986 700.059 14.7986C716.729 14.7986 732.952 15.4494 748.52 16.6802C750.154 16.8093 751.794 16.8207 753.43 16.714C766.512 15.8605 780.019 15.4136 793.833 15.4136C853.012 15.4136 906.484 23.6148 945.073 36.8023C964.38 43.4002 979.825 51.2004 990.393 59.739C1000.98 68.2951 1006.36 77.3194 1006.36 86.3978C1006.36 91.1058 1007.19 96.3206 1009.2 100.828C1011.22 105.344 1014.53 109.351 1019.55 111.147C1037.87 117.691 1052.47 125.339 1062.44 133.664C1072.43 142.001 1077.5 150.761 1077.5 159.575C1077.5 166.561 1074.33 173.497 1068.03 180.24C1061.72 186.995 1052.38 193.425 1040.41 199.295C1016.47 211.033 982.464 220.31 942.48 225.618C939.033 226.076 936.375 228.128 934.634 230.701C932.906 233.255 931.991 236.431 931.991 239.516C931.991 248.594 926.611 257.618 916.022 266.175C905.454 274.713 890.009 282.513 870.702 289.111C832.112 302.299 778.641 310.5 719.461 310.5C665.052 310.5 615.457 303.568 577.816 292.195C572.765 290.669 567.428 290.254 562.189 291.068C535.24 295.253 505.282 297.586 473.714 297.586C428.85 297.586 386.566 296.998 351.339 293.956C315.988 290.904 288.201 285.41 272.013 275.872C269.367 274.314 266.662 272.588 263.858 270.799C263.245 270.409 262.628 270.015 262.006 269.619C258.556 267.426 254.974 265.19 251.307 263.186C244.004 259.195 236.127 255.986 227.919 255.91C222.662 255.861 217.275 255.777 212.192 255.697C205.651 255.595 199.613 255.5 195 255.5C136.015 255.5 87.7027 241.134 54.2138 221.84C37.465 212.191 24.4812 201.343 15.7121 190.503C6.92196 179.637 2.5 168.952 2.5 159.575C2.5 150.675 7.66853 141.828 17.8532 133.419C28.0208 125.024 42.896 117.325 61.5314 110.762Z" fill="white" stroke="#999999" stroke-width="5"/>
</svg>
