<svg width="28" height="30" viewBox="0 0 28 30" fill="none" xmlns="http://www.w3.org/2000/svg">
<path d="M23 30C21.75 30 20.6875 29.5625 19.8125 28.6875C18.9375 27.8125 18.5 26.75 18.5 25.5C18.5 25.325 18.5125 25.1435 18.5375 24.9555C18.5625 24.7685 18.6 24.6 18.65 24.45L8.075 18.3C7.65 18.675 7.175 18.9685 6.65 19.1805C6.125 19.3935 5.575 19.5 5 19.5C3.75 19.5 2.6875 19.0625 1.8125 18.1875C0.9375 17.3125 0.5 16.25 0.5 15C0.5 13.75 0.9375 12.6875 1.8125 11.8125C2.6875 10.9375 3.75 10.5 5 10.5C5.575 10.5 6.125 10.606 6.65 10.818C7.175 11.031 7.65 11.325 8.075 11.7L18.65 5.55C18.6 5.4 18.5625 5.2315 18.5375 5.0445C18.5125 4.8565 18.5 4.675 18.5 4.5C18.5 3.25 18.9375 2.1875 19.8125 1.3125C20.6875 0.4375 21.75 0 23 0C24.25 0 25.3125 0.4375 26.1875 1.3125C27.0625 2.1875 27.5 3.25 27.5 4.5C27.5 5.75 27.0625 6.8125 26.1875 7.6875C25.3125 8.5625 24.25 9 23 9C22.425 9 21.875 8.8935 21.35 8.6805C20.825 8.4685 20.35 8.175 19.925 7.8L9.35 13.95C9.4 14.1 9.4375 14.2685 9.4625 14.4555C9.4875 14.6435 9.5 14.825 9.5 15C9.5 15.175 9.4875 15.356 9.4625 15.543C9.4375 15.731 9.4 15.9 9.35 16.05L19.925 22.2C20.35 21.825 20.825 21.531 21.35 21.318C21.875 21.106 22.425 21 23 21C24.25 21 25.3125 21.4375 26.1875 22.3125C27.0625 23.1875 27.5 24.25 27.5 25.5C27.5 26.75 27.0625 27.8125 26.1875 28.6875C25.3125 29.5625 24.25 30 23 30Z" fill="#EB5C57"/>
</svg>
