<svg width="1440" height="219" viewBox="0 0 1440 219" fill="none" xmlns="http://www.w3.org/2000/svg">
<path d="M1083.28 181.137C1039.36 173.67 989.242 169.439 936.032 169.439C874.919 169.439 817.883 175.02 769.639 184.675C721.473 175.02 664.528 169.439 603.511 169.439C542.171 169.439 484.946 175.079 436.618 184.829C388.366 175.079 331.232 169.439 269.99 169.439C154.947 169.439 54.3983 189.343 0 219L1.33019e-05 50.6776C51.5018 62.5975 114.756 69.6213 183.127 69.6213C244.358 69.6213 301.486 63.9879 349.743 54.2493C398 63.9878 455.127 69.6213 516.358 69.6213C577.427 69.6214 634.415 64.0176 682.591 54.3265C730.844 64.0176 787.922 69.6213 849.089 69.6213C902.194 69.6213 952.217 65.3975 996.059 57.9419C1039.83 65.3974 1089.77 69.6212 1142.79 69.6212C1282.26 69.6213 1400.44 40.3939 1441 0V195.659C1385.36 179.372 1311.32 169.439 1230.05 169.439C1177.01 169.439 1127.05 173.67 1083.28 181.137Z" fill="#5C97BF"/>
</svg>
